<?xml version="1.0" encoding="UTF-8"?>
<svg width="500" height="80" viewBox="0 0 500 80" xmlns="http://www.w3.org/2000/svg">
  <defs>
    <linearGradient id="headerGradient" x1="0%" y1="0%" x2="100%" y2="100%">
      <stop offset="0%" stop-color="#3e63dd" />
      <stop offset="50%" stop-color="#10b981" />
      <stop offset="100%" stop-color="#6e56cf" />
    </linearGradient>
    <filter id="glow" x="-20%" y="-20%" width="140%" height="140%">
      <feGaussianBlur stdDeviation="2" result="blur" />
      <feComposite in="SourceGraphic" in2="blur" operator="over" />
    </filter>
  </defs>

  <rect x="10" y="10" width="480" height="60" rx="5" fill="#ffffff" stroke="url(#headerGradient)" stroke-width="2" />

  <rect x="30" y="25" width="30" height="20" rx="2" fill="none" stroke="#10b981" stroke-width="2" />
  <path d="M30,25 L45,35 L60,25" stroke="#10b981" stroke-width="2" fill="none" />
  <path d="M65,35 A5,5 0 0 1 70,40 A5,5 0 0 1 65,45 A5,5 0 0 1 60,40 A5,5 0 0 1 65,35 Z" fill="none" stroke="#10b981" stroke-width="2" />

  <text x="250" y="45" font-family="'JetBrains Mono', monospace" font-size="22" font-weight="bold" text-anchor="middle" fill="url(#headerGradient)" filter="url(#glow)">CONTACT</text>

  <path d="M430,25 L450,25 M430,45 L450,45" stroke="#3e63dd" stroke-width="2" />
  <text x="470" y="45" font-family="'JetBrains Mono', monospace" font-size="18" fill="#6e56cf">$</text>
</svg>
